<svg version="1.2" xmlns="http://www.w3.org/2000/svg" viewBox="0 0 815 446" width="815" height="446">
	<title>logo-jeimar-europa</title>
	<style>
		.s0 { fill: #2d2d2d;stroke: #000000;paint-order:stroke fill markers;stroke-linejoin: round;stroke-width: 2 } 
		.s1 { fill: #2d2d2d } 
	</style>
	<path id="Path 1" fill-rule="evenodd" class="s0" d="m407 7c0.1 0 26 25.9 114.7 114.9l-115 115-114.7-115 57.4-57.5c31.6-31.7 57.6-57.4 57.6-57.4zm-52.1 62.9l-51.9 52 103.7 103.7c19.9-19.9 43.1-43.3 64.5-64.7l38.9-39c-22.2-22.4-45.4-45.7-65.9-66.4l-37.3-37.5zm19.9-9.7h64.6v10.1h-26.3v11.7l3.1 0.5c1.8 0.4 4.4 0.9 5.9 1.4 1.6 0.4 4.1 1.4 5.8 2.3 1.7 0.7 4.2 2.1 5.5 3 1.4 0.9 3.8 2.9 5.4 4.5 1.6 1.7 3.7 4.1 4.5 5.5 0.9 1.4 2.2 3.5 2.8 4.9 0.7 1.3 1.5 3.6 2 5.2 0.4 1.5 1.1 4 1.3 5.6 0.3 1.8 0.5 4.7 0.5 7.5 0 3-0.2 5.7-0.5 7.7-0.4 1.6-1 4.4-1.6 6.2-0.7 1.7-1.7 4.4-2.4 5.9-0.8 1.4-2.3 3.7-3.3 5.2-1.1 1.4-3.2 3.6-4.6 4.9-1.3 1.4-3.6 3.2-5 4-1.3 0.9-3.3 2.2-4.4 2.7-1.2 0.5-3.6 1.5-5.6 2.1-1.9 0.7-4.6 1.4-6.2 1.6-1.5 0.2-2.9 0.3-3.1 0.5-0.3 0-0.4 0.6-0.4 1.2 0 0.8-0.2 2.4-0.5 3.7-0.3 1.2-0.9 3.3-1.3 4.4-0.3 1-1.2 2.8-2 3.9-0.7 1-2.3 2.9-3.4 3.9-1.3 1.3-3 2.6-4.2 3.1-1.1 0.6-2.7 1.2-3.6 1.5-0.9 0.2-3.3 0.5-5.2 0.6-2.3 0.1-4.3 0-5.7-0.1-1.1-0.3-3.1-0.8-4.3-1.3-1.1-0.5-2.9-1.4-3.9-2-1-0.6-2.8-2-5.8-4.9l7.7-7.7 2.3 2.1c1.2 1.3 3 2.5 4.2 3 1.7 0.9 2.2 1.1 4.5 1.1 2.1 0 2.9-0.2 3.9-0.7 0.6-0.4 1.7-1.2 2.3-1.9 0.5-0.6 1.2-1.7 1.6-2.5 0.3-0.7 0.8-2.1 1-3 0.2-1 0.5-2.4 0.8-4.4l-3.4-0.7c-2-0.2-4.9-1-6.6-1.5-1.6-0.6-4.3-1.6-5.8-2.4-1.5-0.7-3.8-2.1-5-3-1.3-0.9-3.6-2.8-5-4.3-1.3-1.4-3.4-3.7-4.3-5.1-0.8-1.2-2.2-3.7-3-5.4-0.9-1.7-1.9-4.3-2.3-5.8-0.5-1.5-1-4.4-1.2-6.3-0.4-2.6-0.5-4.7-0.4-7.9 0.1-2.6 0.5-5.7 0.8-7.4 0.3-1.6 1.1-4.1 1.6-5.7 0.5-1.5 1.5-3.9 2.3-5.1 0.6-1.4 2-3.6 3-4.9 1.1-1.4 3-3.6 4.5-5 1.4-1.2 3.6-3 4.8-3.9 1.3-0.9 3.6-2.1 5-2.9 1.4-0.6 3.5-1.5 4.5-1.9 1.1-0.2 3-0.7 4.3-1 1.3-0.2 3.2-0.5 6.2-0.9v-11.8h-26.4zm38.3 62.4v31.3c2.2-0.3 3.9-0.8 5.1-1.2 1.3-0.4 3.4-1.4 4.7-2 1.3-0.7 3.2-1.9 4.3-2.8 1-0.9 2.6-2.4 3.4-3.3 0.8-1 1.8-2.3 2.3-3 0.5-0.8 1.4-2.3 1.9-3.3 0.5-1 1.2-3 1.7-4.4 0.4-1.4 1-3.9 1.3-5.6 0.1-1.5 0.4-4.1 0.4-5.7 0-1.5-0.2-3.9-0.4-5.1-0.1-1.4-0.5-3.4-0.9-4.7-0.2-1.3-1-3.4-1.5-4.8-0.6-1.3-1.6-3.3-2.4-4.4-0.8-1.2-2.3-2.9-3.4-4.1-1-1.1-3-2.9-4.4-3.7-1.4-0.9-3.3-2.1-4.4-2.4-1.2-0.5-3.1-1.2-4.3-1.4-1.3-0.4-2.6-0.7-2.9-0.7-0.5 0-0.5 1.8-0.5 31.3zm-15.9-30.6c-1.3 0.3-3.7 1.2-5.4 2.1-1.7 0.8-4 2.3-5.1 3.2-1.2 1-2.8 2.6-3.8 3.8-0.9 1.1-2.4 3.5-3.3 5.4-1 1.9-2 4.4-2.3 5.8-0.3 1.4-0.7 3.4-1 4.5-0.1 1.3-0.2 3.8-0.2 5.7 0 2 0.2 4.9 0.5 6.6 0.2 1.7 0.7 4.1 1.1 5.3 0.5 1.2 1.3 3.1 1.8 4.1 0.5 1.1 1.5 2.8 2.3 3.8 0.6 1 2.3 2.8 3.6 4.2 1.4 1.3 3.4 2.8 4.6 3.5 1.2 0.8 3 1.7 4.1 2.1 1.2 0.5 2.8 1 3.7 1.2 0.9 0.3 2 0.5 2.5 0.6l0.9 0.2v-62.8c-1.4 0-2.8 0.3-4 0.7z"/>
	<path id="JEIMAR copy" class="s1" d="m61.6 262.4h30.1v64.2q0 20.4-11.9 31.8-11.8 11.2-33.8 11.2-16 0-25.8-5.6-9.7-5.8-13.5-15.8-3.5-10.3-1.4-23.2l29.6-5.1q-2 14.6 0.9 20.6 3.3 5.8 11.4 5.8 7.9 0 11-5.3 3.4-5.6 3.4-17.2zm174.2 105.6h-85.7v-105.6h83.7v22.8h-53.6v19.3h42.7v21.4h-42.7v19.2h55.6zm54.1-105.6h30.1v105.6h-30.1zm175.6 0h40.8v105.6h-26.5v-45.3l0.7-33.3h-0.3l-24.7 78.6h-24.2l-24.4-78.6h-0.5l0.7 33.3v45.3h-26.6v-105.6h42.6l15.4 52 5.6 21.6h0.4l5.6-21.6zm163 0l36.3 105.6h-30.9l-6.6-22.8h-34.2l-6.8 22.8h-30.2l36.3-105.6zm-18.2 21.7l-11.9 41.2h23.6zm104.4-21.7h52.2q19.3 0 29.9 8.9 10.7 8.9 10.7 23.9 0 16.5-10.6 25.1-10.4 8.5-29.7 8.5l-2.9 1.5h-20.1v37.7h-29.5zm29.5 47.1h18.1q7.5 0 11.1-2.8 3.9-3 3.9-9.6 0-6.5-3.9-9.5-3.6-2.9-11.1-2.9h-18.1zm10 12.2l25.9-6 33.5 52.2h-33.1z"/>
	<path id="EUROPA" class="s1" d="m54.4 445h-51.3v-58.3h49.8v8.1h-38.6v16.8h30.2v7.9h-30.2v17.3h40.1zm140.1-58.3h11.2v36q0 11.6-7.3 17.4-7.1 5.8-20.8 5.8-13.5 0-20.8-5.8-7.2-5.8-7.2-17.4v-36h11.2v34.8q0 8.3 4 12.3 4.2 3.9 12.8 3.9 8.7 0 12.7-3.9 4.2-4 4.2-12.3zm111.8 0h28q11.1 0 17.5 4.7 6.5 4.7 6.5 12.7 0 8.1-6.5 12.7-6.5 4.4-17.5 4.4l-1 0.5h-15.9v23.4h-11.1zm11.1 27.1h16.1q6.7 0 10-2.3 3.3-2.4 3.3-7.2 0-4.8-3.3-7.1-3.3-2.4-10-2.4h-16.1zm13.1 5.6l9.5-3.7 22.4 29.3h-12.8zm155.3-33.7q10 0 17.2 3.7 7.3 3.6 11.1 10.3 4 6.7 4 16 0 9.4-4 16.1-3.8 6.7-11.1 10.4-7.2 3.6-17.2 3.6-10 0-17.3-3.6-7.2-3.7-11.2-10.4-3.9-6.7-3.9-16.1 0-9.3 3.9-16 4-6.7 11.2-10.3 7.3-3.7 17.3-3.7zm0 8.2q-6.5 0-11.2 2.6-4.6 2.5-7.2 7.5-2.4 4.8-2.4 11.7 0 7 2.4 11.9 2.6 4.9 7.2 7.5 4.7 2.5 11.2 2.5 6.5 0 11.1-2.5 4.6-2.6 7-7.5 2.6-4.9 2.6-11.9 0-6.9-2.6-11.7-2.4-5-7-7.5-4.6-2.6-11.1-2.6zm130.5-7.3h26.4q7.4 0 12.8 2.2 5.4 2.2 8.3 6.3 3.1 4.1 3.1 9.7 0 5.7-3.1 9.9-2.9 4-8.3 6.3-5.4 2.1-12.8 2.1h-15.2v21.8h-11.2zm11.2 28.5h13.5q7.4 0 10.8-2.6 3.5-2.6 3.5-7.6 0-5.1-3.5-7.6-3.4-2.6-10.8-2.6h-13.5zm161.2-28.5l25.9 58.3h-11.7l-6.6-15.2h-28.8l-6.6 15.2h-11.5l26-58.3zm-6.9 8.1l-11.2 27.2h22.6z"/>
	<path id="....." class="s1" d="m105.2 409q3.6 0 5.7 1.8 2.2 1.7 2.2 4.6 0 3-2.2 4.7-2.1 1.8-5.7 1.8-3.6 0-5.8-1.8-2-1.7-2-4.7 0-2.9 2-4.6 2.2-1.8 5.8-1.8zm152.2 0q3.5 0 5.6 1.8 2.2 1.7 2.2 4.6 0 3-2.2 4.7-2.1 1.8-5.6 1.8-3.6 0-5.8-1.8-2.1-1.7-2.1-4.7 0-2.9 2.1-4.6 2.2-1.8 5.8-1.8zm152.1 0q3.6 0 5.7 1.8 2.2 1.7 2.2 4.6 0 3-2.2 4.7-2.1 1.8-5.7 1.8-3.5 0-5.8-1.8-2-1.7-2-4.7 0-2.9 2-4.6 2.3-1.8 5.8-1.8zm152.2 0q3.5 0 5.6 1.8 2.2 1.7 2.2 4.6 0 3-2.2 4.7-2.1 1.8-5.6 1.8-3.6 0-5.8-1.8-2.1-1.7-2.1-4.7 0-2.9 2.1-4.6 2.2-1.8 5.8-1.8zm152.1 0q3.6 0 5.7 1.8 2.2 1.7 2.2 4.6 0 3-2.2 4.7-2.1 1.8-5.7 1.8-3.5 0-5.8-1.8-2-1.7-2-4.7 0-2.9 2-4.6 2.3-1.8 5.8-1.8z"/>
</svg>